<?xml version="1.0" encoding="utf-8"?>
<!-- Generator: Adobe Illustrator 15.0.0, SVG Export Plug-In . SVG Version: 6.00 Build 0)  -->
<!DOCTYPE svg PUBLIC "-//W3C//DTD SVG 1.1//EN" "http://www.w3.org/Graphics/SVG/1.1/DTD/svg11.dtd">
<svg version="1.1" id="Layer_1" xmlns="http://www.w3.org/2000/svg" xmlns:xlink="http://www.w3.org/1999/xlink" x="0px" y="0px"
	 width="30px" height="30px" viewBox="0 0 30 30" enable-background="new 0 0 30 30" xml:space="preserve">
<g>
	<g>
		<path fill="none" stroke="#88C474" stroke-miterlimit="10" d="M23.709,18.297c0,0.203-0.166,0.369-0.369,0.369H7.647
			c-0.204,0-0.369-0.166-0.369-0.369V9.25c0-0.204,0.165-0.369,0.369-0.369H23.34c0.203,0,0.369,0.165,0.369,0.369V18.297z"/>
		<g>
			<path fill="none" stroke="#88C474" stroke-miterlimit="10" d="M12.909,20.512c0,0.204-0.166,0.369-0.369,0.369H9.955
				c-0.204,0-0.369-0.165-0.369-0.369v-1.477c0-0.205,0.165-0.369,0.369-0.369h2.585c0.204,0,0.369,0.164,0.369,0.369V20.512z"/>
			<path fill="none" stroke="#88C474" stroke-miterlimit="10" d="M21.4,20.512c0,0.204-0.164,0.369-0.369,0.369h-2.584
				c-0.204,0-0.369-0.165-0.369-0.369v-1.477c0-0.205,0.165-0.369,0.369-0.369h2.584c0.205,0,0.369,0.164,0.369,0.369V20.512z"/>
		</g>
	</g>
	<polygon fill="#88C474" points="18.14,9.631 13.093,13.957 15.617,13.957 12.373,17.212 18.14,13.421 15.256,13.421 	"/>
</g>
</svg>
