<?xml version="1.0" encoding="utf-8"?>
<!-- Generator: Adobe Illustrator 15.0.0, SVG Export Plug-In . SVG Version: 6.00 Build 0)  -->
<!DOCTYPE svg PUBLIC "-//W3C//DTD SVG 1.1//EN" "http://www.w3.org/Graphics/SVG/1.1/DTD/svg11.dtd">
<svg version="1.1" id="Layer_1" xmlns="http://www.w3.org/2000/svg" xmlns:xlink="http://www.w3.org/1999/xlink" x="0px" y="0px"
	 width="30px" height="30px" viewBox="0 0 30 30" enable-background="new 0 0 30 30" xml:space="preserve">
<g>
	<g>
		<path fill="#FFFFFF" d="M24.098,20.285c0,0.779-0.639,1.418-1.418,1.418H8.042c-0.78,0-1.417-0.639-1.417-1.418V8.209
			c0-0.78,0.638-1.417,1.417-1.417H22.68c0.779,0,1.418,0.638,1.418,1.417V20.285z"/>
		<path fill="none" stroke="#F8AAB5" stroke-miterlimit="10" d="M24.098,20.285c0,0.779-0.639,1.418-1.418,1.418H8.042
			c-0.78,0-1.417-0.639-1.417-1.418V8.209c0-0.78,0.638-1.417,1.417-1.417H22.68c0.779,0,1.418,0.638,1.418,1.417V20.285z"/>
	</g>
	<line fill="none" stroke="#F8AAB5" stroke-miterlimit="10" x1="6.792" y1="12.437" x2="24.264" y2="12.478"/>
	<g>
		<line fill="none" stroke="#F8AAB5" stroke-miterlimit="10" x1="6.625" y1="10.494" x2="24.098" y2="10.536"/>
		<line fill="none" stroke="#F8AAB5" stroke-miterlimit="10" x1="21.598" y1="10.911" x2="21.598" y2="12.437"/>
		<line fill="none" stroke="#F8AAB5" stroke-miterlimit="10" x1="19.305" y1="10.911" x2="19.305" y2="12.437"/>
	</g>
</g>
</svg>
