<?xml version="1.0" encoding="UTF-8" standalone="no"?>
<!-- Generator: Adobe Illustrator 15.0.0, SVG Export Plug-In . SVG Version: 6.00 Build 0)  -->

<svg
   xmlns:dc="http://purl.org/dc/elements/1.1/"
   xmlns:cc="http://creativecommons.org/ns#"
   xmlns:rdf="http://www.w3.org/1999/02/22-rdf-syntax-ns#"
   xmlns:svg="http://www.w3.org/2000/svg"
   xmlns="http://www.w3.org/2000/svg"
   xmlns:sodipodi="http://sodipodi.sourceforge.net/DTD/sodipodi-0.dtd"
   xmlns:inkscape="http://www.inkscape.org/namespaces/inkscape"
   version="1.1"
   id="Layer_1"
   x="0px"
   y="0px"
   width="190"
   height="40"
   viewBox="0 0 189.99999 39.999999"
   enable-background="new 0 0 595.28 841.89"
   xml:space="preserve"
   inkscape:version="0.91 r13725"
   sodipodi:docname="LEONICS-logo2.svg"><metadata
   id="metadata4191"><rdf:RDF><cc:Work
       rdf:about=""><dc:format>image/svg+xml</dc:format><dc:type
         rdf:resource="http://purl.org/dc/dcmitype/StillImage" /><dc:title></dc:title></cc:Work></rdf:RDF></metadata><defs
   id="defs4189" /><sodipodi:namedview
   pagecolor="#ffffff"
   bordercolor="#666666"
   borderopacity="1"
   objecttolerance="10"
   gridtolerance="10"
   guidetolerance="10"
   inkscape:pageopacity="0"
   inkscape:pageshadow="2"
   inkscape:window-width="1366"
   inkscape:window-height="705"
   id="namedview4187"
   showgrid="false"
   inkscape:zoom="3.1714775"
   inkscape:cx="109.01956"
   inkscape:cy="34.708844"
   inkscape:window-x="1192"
   inkscape:window-y="824"
   inkscape:window-maximized="1"
   inkscape:current-layer="Layer_1" />
<g
   id="g4165"
   transform="translate(-201.67166,-400.94241)">
	<g
   id="g4167">
		<g
   id="g4169">
			<path
   d="m 216.521,405.797 -5.271,24.817 14.34,0 -1.092,5.135 -20.504,0 6.365,-29.952 6.162,0 z"
   id="path4171"
   inkscape:connector-curvature="0"
   style="fill:#27509b" />
			<path
   d="m 278.212,432.956 c -3.057,2.588 -6.957,3.739 -10.777,3.739 -3.822,0 -7.234,-1.151 -9.191,-3.739 -2.174,-2.917 -2.855,-7.438 -1.896,-11.957 0.961,-4.52 3.564,-9.039 6.979,-11.957 3.055,-2.587 6.957,-3.738 10.777,-3.738 3.822,0 7.234,1.151 9.191,3.738 2.174,2.918 2.857,7.438 1.896,11.957 -0.961,4.519 -3.565,9.04 -6.979,11.957 z m -3.701,-3.656 c 2.357,-1.81 4.033,-5.055 4.764,-8.301 0.648,-3.245 0.352,-6.491 -1.238,-8.299 -1.254,-1.438 -3.104,-2.014 -5.078,-2.014 -1.971,0 -4.064,0.576 -5.932,2.014 -2.357,1.808 -4.031,5.054 -4.764,8.299 -0.648,3.246 -0.352,6.491 1.236,8.301 1.256,1.438 3.107,2.013 5.078,2.013 1.973,-10e-4 4.067,-0.576 5.934,-2.013 z"
   id="path4173"
   inkscape:connector-curvature="0"
   style="fill:#27509b" />
			<path
   d="m 297.949,405.797 7.747,20.585 4.373,-20.585 6.164,0 -6.365,29.952 -6.08,0 -7.688,-20.872 -4.434,20.872 -6.162,0 6.363,-29.952 6.082,0 z"
   id="path4175"
   inkscape:connector-curvature="0"
   style="fill:#27509b" />
			<path
   d="m 320.729,435.749 -6.162,0 6.363,-29.952 6.162,0 -6.363,29.952 z"
   id="path4177"
   inkscape:connector-curvature="0"
   style="fill:#27509b" />
			<path
   d="m 353.316,425.519 c -0.686,3.041 -3.146,6.491 -5.781,8.259 -2.062,1.396 -5.73,2.795 -9.453,2.918 -6.701,0.205 -10.436,-4.067 -10.693,-10.396 -0.031,-1.396 0.125,-3.287 0.543,-5.259 0.428,-2.013 1.068,-4.067 1.92,-5.752 2.873,-5.587 7.381,-9.984 15.146,-9.984 2.137,0 5.084,0.247 7.555,2.342 3.695,2.917 3.08,6.779 2.797,8.301 l -5.875,0 c 0.195,-1.686 -0.305,-5.917 -6.398,-5.465 -2.838,0.205 -5.443,2.219 -6.971,4.766 -0.639,1.068 -1.467,3.041 -2.045,5.177 -0.535,2.136 -0.82,4.437 -0.391,6.286 0.523,2.179 1.602,3.493 2.971,4.191 0.713,0.329 1.459,0.493 2.32,0.493 0.812,0.041 1.744,-0.082 2.658,-0.329 4.527,-1.19 5.295,-4.231 5.822,-5.547 l 5.875,0 z"
   id="path4179"
   inkscape:connector-curvature="0"
   style="fill:#27509b" />
			<path
   d="m 375.814,414.919 c 0.598,-2.425 -0.945,-4.643 -5.16,-4.726 -2.99,-0.041 -5.428,0.987 -6.156,3.452 -0.602,2.054 0.01,2.466 1.254,3 0.541,0.739 6.02,1.643 7.127,1.849 1.58,0.287 4.957,1.027 6.438,2.958 2.682,3.616 -0.43,10.723 -4.684,13.148 -2.896,1.644 -6.477,2.055 -9.814,2.096 -1.527,0.041 -5.031,-0.494 -6.908,-2.096 -2.262,-1.931 -2.947,-4.89 -2.551,-7.725 l 5.998,0 c -0.164,0.78 -0.18,2.014 0.621,3.081 1.059,1.397 3.182,1.85 5.254,1.768 2.062,-0.041 4.125,-0.658 5.062,-1.397 1.576,-1.232 2.361,-3.574 1.195,-5.054 -1.533,-2.055 -7.451,-2.055 -11.033,-3.369 -3.012,-1.109 -5.186,-3.451 -3.662,-8.299 1.508,-4.767 5.709,-8.3 13.023,-8.3 1.602,0 7.164,0.123 9.295,3.821 1.135,2.014 0.951,4.807 0.494,5.794 l -5.793,0 z"
   id="path4181"
   inkscape:connector-curvature="0"
   style="fill:#27509b" />
			<path
   d="m 256.289,405.797 -1.09,5.136 -15.531,0 -1.449,7.247 14.34,0 -1.092,5.136 -14.34,0 -1.641,7.299 16.23,0 -1.094,5.135 -22.391,0 6.363,-29.952 21.695,0 z"
   id="path4183"
   inkscape:connector-curvature="0"
   style="fill:#27509b" />
		</g>
		<path
   d="m 388.143,430.961 c 0.662,0.666 0.994,1.471 0.994,2.414 0,0.951 -0.332,1.761 -0.994,2.432 -0.662,0.668 -1.467,1.004 -2.416,1.004 -0.947,0 -1.752,-0.336 -2.414,-1.004 -0.658,-0.671 -0.986,-1.48 -0.986,-2.432 0,-0.943 0.33,-1.748 0.992,-2.414 0.666,-0.67 1.469,-1.005 2.408,-1.005 0.943,0 1.748,0.335 2.416,1.005 z m 0.394,-0.383 c -0.773,-0.771 -1.711,-1.156 -2.811,-1.156 -1.09,0 -2.021,0.385 -2.791,1.156 -0.773,0.773 -1.162,1.706 -1.162,2.797 0,1.102 0.385,2.041 1.15,2.814 0.771,0.777 1.707,1.167 2.803,1.167 1.1,0 2.037,-0.39 2.811,-1.167 0.774,-0.777 1.16,-1.716 1.16,-2.814 0,-1.095 -0.386,-2.026 -1.16,-2.797 z m -2.221,2.614 c -0.162,0.063 -0.404,0.097 -0.729,0.097 l -0.691,0 0,-1.577 0.654,0 c 0.424,0 0.732,0.054 0.924,0.161 0.195,0.108 0.289,0.321 0.289,0.638 0.001,0.335 -0.148,0.561 -0.447,0.681 z m -2.187,2.349 0.768,0 0,-1.718 0.604,0 c 0.408,0 0.693,0.047 0.855,0.141 0.273,0.163 0.408,0.495 0.408,0.999 l 0,0.346 0.018,0.141 c 0.004,0.018 0.006,0.034 0.012,0.049 0.002,0.015 0.006,0.028 0.01,0.043 l 0.719,0 -0.027,-0.054 c -0.02,-0.036 -0.031,-0.111 -0.037,-0.227 -0.008,-0.115 -0.012,-0.224 -0.012,-0.325 l 0,-0.317 c 0,-0.221 -0.08,-0.444 -0.236,-0.676 -0.16,-0.229 -0.41,-0.373 -0.752,-0.427 0.27,-0.044 0.48,-0.113 0.633,-0.211 0.283,-0.184 0.426,-0.47 0.426,-0.858 0,-0.547 -0.225,-0.914 -0.674,-1.102 -0.254,-0.104 -0.648,-0.157 -1.189,-0.157 l -1.523,0 0,4.353 z"
   id="path4185"
   inkscape:connector-curvature="0"
   style="fill:#27509b" />
	</g>
</g>
</svg>