<?xml version="1.0" encoding="utf-8"?>
<!-- Generator: Adobe Illustrator 15.0.0, SVG Export Plug-In . SVG Version: 6.00 Build 0)  -->
<!DOCTYPE svg PUBLIC "-//W3C//DTD SVG 1.1//EN" "http://www.w3.org/Graphics/SVG/1.1/DTD/svg11.dtd">
<svg version="1.1" id="Layer_1" xmlns="http://www.w3.org/2000/svg" xmlns:xlink="http://www.w3.org/1999/xlink" x="0px" y="0px"
	 width="39px" height="37px" viewBox="0 0 39 37" enable-background="new 0 0 39 37" xml:space="preserve">
<g>
	<defs>
		<path id="SVGID_1_" d="M8.475,8.499C8.469,8.512,8.464,8.524,8.458,8.535C8.442,8.573,8.428,8.61,8.413,8.646
			c-0.236,0.617-0.31,1.35-0.33,1.856v12.846c0,1.851,0.222,2.78,0.316,3.092c0.315,0.969,0.907,2.069,2.026,2.759
			c0,0,0.384,0.286,1.223,0.466h10.273l-0.025-4.534c-0.613,0.068-6.554,0.047-7.178,0.029c-2.15-0.058-2.23-2.364-2.23-2.364
			v-9.673c0,0-0.004-2.497,2.331-2.549c0.298-0.005,7.156-0.002,7.423,0.011V5.892h-10.97C9.673,6.465,8.873,7.581,8.475,8.499"/>
	</defs>
	<clipPath id="SVGID_2_">
		<use xlink:href="#SVGID_1_"  overflow="visible"/>
	</clipPath>
	
		<radialGradient id="SVGID_3_" cx="-517.5713" cy="557.7861" r="0.0748" gradientTransform="matrix(192.2117 0 0 -119.4725 99498.2656 66657.7891)" gradientUnits="userSpaceOnUse">
		<stop  offset="0" style="stop-color:#61C4B2"/>
		<stop  offset="0.127" style="stop-color:#61C4B2"/>
		<stop  offset="0.3987" style="stop-color:#02B6AC"/>
		<stop  offset="0.7684" style="stop-color:#07959C"/>
		<stop  offset="1" style="stop-color:#06959D"/>
	</radialGradient>
	<rect x="8.083" y="5.892" clip-path="url(#SVGID_2_)" fill="url(#SVGID_3_)" width="13.786" height="23.773"/>
</g>
<radialGradient id="SVGID_4_" cx="23.1689" cy="17.751" r="8.0785" gradientUnits="userSpaceOnUse">
	<stop  offset="0" style="stop-color:#61C4B2"/>
	<stop  offset="0.127" style="stop-color:#61C4B2"/>
	<stop  offset="0.3987" style="stop-color:#02B6AC"/>
	<stop  offset="0.7684" style="stop-color:#07959C"/>
	<stop  offset="1" style="stop-color:#06959D"/>
</radialGradient>
<polygon fill="url(#SVGID_4_)" points="13.878,16.437 13.878,19.116 24.441,19.116 24.441,24.399 32.46,17.778 24.575,11.103 
	24.575,16.412 "/>
</svg>
