<?xml version="1.0" encoding="utf-8"?>
<!-- Generator: Adobe Illustrator 15.0.0, SVG Export Plug-In . SVG Version: 6.00 Build 0)  -->
<!DOCTYPE svg PUBLIC "-//W3C//DTD SVG 1.1//EN" "http://www.w3.org/Graphics/SVG/1.1/DTD/svg11.dtd">
<svg version="1.1" id="Layer_1" xmlns="http://www.w3.org/2000/svg" xmlns:xlink="http://www.w3.org/1999/xlink" x="0px" y="0px"
	 width="30px" height="30px" viewBox="0 0 30 30" enable-background="new 0 0 30 30" xml:space="preserve">
<g>
	<g>
		<path fill="#7EADD7" d="M5.459,10.636c0,0,5.906-4.324,11.25,2.181c1.959,2.385,8.832-3.667,8.832-3.667v10.833
			c0,0-4.434,5.021-11.03,0.623c-4-2.666-9.052,1.637-9.052,1.637V10.636z"/>
		
			<line fill="none" stroke="#FFFFFF" stroke-linecap="round" stroke-miterlimit="10" x1="10.875" y1="9.15" x2="10.875" y2="19.769"/>
		
			<line fill="none" stroke="#FFFFFF" stroke-linecap="round" stroke-miterlimit="10" x1="18.541" y1="13.328" x2="18.541" y2="22.411"/>
	</g>
	<g>
		<path fill="#7EADD7" stroke="#FFFFFF" stroke-miterlimit="10" d="M20.334,8.255c0,2.532-2.332,6.042-4,7.292
			c-0.852,0.641-3.999-4.761-3.999-7.292c0-2.531,1.791-4.583,3.999-4.583C18.543,3.672,20.334,5.724,20.334,8.255z"/>
		<circle fill="#FFFFFF" cx="16.335" cy="9.636" r="2.333"/>
	</g>
</g>
</svg>
