<?xml version="1.0" encoding="utf-8"?>
<!-- Generator: Adobe Illustrator 15.0.0, SVG Export Plug-In . SVG Version: 6.00 Build 0)  -->
<!DOCTYPE svg PUBLIC "-//W3C//DTD SVG 1.1//EN" "http://www.w3.org/Graphics/SVG/1.1/DTD/svg11.dtd">
<svg version="1.1" id="Layer_1" xmlns="http://www.w3.org/2000/svg" xmlns:xlink="http://www.w3.org/1999/xlink" x="0px" y="0px"
	 width="30px" height="30px" viewBox="0 0 30 30" enable-background="new 0 0 30 30" xml:space="preserve">
<g>
	<g>
		<path fill="none" stroke="#567DB5" stroke-miterlimit="10" d="M19.666,23.041c0,0.277-0.174,0.5-0.389,0.5h-8.055
			c-0.216,0-0.39-0.223-0.39-0.5V8.709c0-0.277,0.174-0.5,0.39-0.5h8.055c0.215,0,0.389,0.223,0.389,0.5V23.041z"/>
		<path fill="none" stroke="#567DB5" stroke-miterlimit="10" d="M16.916,7.959c0,0.138-0.16,0.25-0.357,0.25h-2.617
			c-0.198,0-0.357-0.112-0.357-0.25V7.125c0-0.139,0.159-0.25,0.357-0.25h2.617c0.197,0,0.357,0.111,0.357,0.25V7.959z"/>
	</g>
	<polygon fill="#567DB5" points="18.133,11.418 13.086,15.743 15.61,15.743 12.366,18.998 18.133,15.208 15.25,15.208 	"/>
</g>
</svg>
