<?xml version="1.0" encoding="utf-8"?>
<!-- Generator: Adobe Illustrator 15.0.0, SVG Export Plug-In . SVG Version: 6.00 Build 0)  -->
<!DOCTYPE svg PUBLIC "-//W3C//DTD SVG 1.1//EN" "http://www.w3.org/Graphics/SVG/1.1/DTD/svg11.dtd">
<svg version="1.1" id="Layer_1" xmlns="http://www.w3.org/2000/svg" xmlns:xlink="http://www.w3.org/1999/xlink" x="0px" y="0px"
	 width="141.73px" height="141.73px" viewBox="0 0 141.73 141.73" enable-background="new 0 0 141.73 141.73" xml:space="preserve">
<g>
	
		<line fill="none" stroke="#6C6C6E" stroke-width="3" stroke-linecap="round" stroke-miterlimit="10" x1="43.333" y1="102" x2="103" y2="102"/>
	<g>
		<g>
			
				<ellipse fill="#6C6C6E" stroke="#6C6C6E" stroke-width="2" stroke-miterlimit="10" cx="47.75" cy="90.063" rx="5.188" ry="5.688"/>
			
				<ellipse fill="#6C6C6E" stroke="#6C6C6E" stroke-width="2" stroke-miterlimit="10" cx="93.253" cy="90.063" rx="5.188" ry="5.688"/>
		</g>
		<g>
			<g>
				<polyline fill="none" stroke="#6C6C6E" stroke-width="5" stroke-linecap="round" stroke-miterlimit="10" points="47.75,52.875 
					47.75,42.125 70.892,42.125 79.334,52.25 				"/>
				<g>
					<g>
						<path fill="#FFFFFF" stroke="#6C6C6E" stroke-width="2" stroke-linecap="round" stroke-miterlimit="10" d="M103.725,89.26
							V58.834c0-4.418-3.674-8-8.208-8h-49.25c-4.534,0-8.208,3.582-8.208,8V89.26H103.725z"/>
						<g>
							<g>
								
									<line fill="none" stroke="#6C6C6E" stroke-width="4" stroke-linecap="square" stroke-miterlimit="10" x1="48.5" y1="63.333" x2="58.833" y2="63.333"/>
								
									<line fill="none" stroke="#6C6C6E" stroke-width="4" stroke-linecap="square" stroke-miterlimit="10" x1="48.5" y1="70.333" x2="58.833" y2="70.333"/>
								
									<line fill="none" stroke="#6C6C6E" stroke-width="4" stroke-linecap="square" stroke-miterlimit="10" x1="48.5" y1="77.167" x2="58.833" y2="77.167"/>
							</g>
							<g>
								
									<line fill="none" stroke="#6C6C6E" stroke-width="5" stroke-linecap="square" stroke-miterlimit="10" x1="68.542" y1="62.833" x2="68.542" y2="67.667"/>
								<circle fill="#6C6C6E" stroke="#6C6C6E" stroke-width="2" stroke-miterlimit="10" cx="68.542" cy="76.584" r="1.75"/>
							</g>
						</g>
					</g>
					<g>
						<g>
							<circle fill="#6C6C6E" cx="86.167" cy="69.874" r="7.086"/>
							<rect x="82.666" y="60.707" fill="#6C6C6E" width="6.834" height="4.083"/>
						</g>
						<g>
							<circle fill="#FFFFFF" cx="82.834" cy="70.333" r="1.5"/>
							<circle fill="#FFFFFF" cx="89.666" cy="70.333" r="1.5"/>
						</g>
					</g>
				</g>
			</g>
			<g>
				<path fill="#6C6C6E" d="M96.646,41.063c0,1.001-0.674,1.813-1.504,1.813H82.15c-0.831,0-1.504-0.812-1.504-1.813l0,0
					c0-1.001,0.673-1.813,1.504-1.813h12.992C95.973,39.25,96.646,40.062,96.646,41.063L96.646,41.063z"/>
				<rect x="83.313" y="41.625" fill="#6C6C6E" width="10.666" height="4.75"/>
			</g>
		</g>
	</g>
</g>
</svg>
