<?xml version="1.0" encoding="utf-8"?>
<!-- Generator: Adobe Illustrator 15.0.0, SVG Export Plug-In . SVG Version: 6.00 Build 0)  -->
<!DOCTYPE svg PUBLIC "-//W3C//DTD SVG 1.1//EN" "http://www.w3.org/Graphics/SVG/1.1/DTD/svg11.dtd">
<svg version="1.1" id="Layer_1" xmlns="http://www.w3.org/2000/svg" xmlns:xlink="http://www.w3.org/1999/xlink" x="0px" y="0px"
	 width="56.69px" height="56.69px" viewBox="0 0 56.69 56.69" enable-background="new 0 0 56.69 56.69" xml:space="preserve">
<g>
	<g>
		<path fill="none" stroke="#6C6C6E" stroke-width="1.5" stroke-miterlimit="10" d="M5.014,4.95c0.182-1.64,1.681-2.981,3.331-2.981
			h40.418c1.65,0,3.135,1.343,3.301,2.985l3.645,36.029c0.166,1.643-1.049,2.985-2.697,2.985H3.679c-1.65,0-2.851-1.342-2.669-2.981
			L5.014,4.95z"/>
	</g>
	<line fill="none" stroke="#6C6C6E" stroke-width="1.5" stroke-miterlimit="10" x1="15.264" y1="43.969" x2="17.514" y2="1.969"/>
	<line fill="none" stroke="#6C6C6E" stroke-width="1.5" stroke-miterlimit="10" x1="29.139" y1="44.094" x2="29.139" y2="2.094"/>
	<line fill="none" stroke="#6C6C6E" stroke-width="1.5" stroke-miterlimit="10" x1="42.014" y1="43.969" x2="39.514" y2="1.969"/>
	<line fill="none" stroke="#6C6C6E" stroke-width="1.5" stroke-miterlimit="10" x1="4.303" y1="11.351" x2="52.766" y2="11.351"/>
	<line fill="none" stroke="#6C6C6E" stroke-width="1.5" stroke-miterlimit="10" x1="3.217" y1="21.118" x2="53.9" y2="21.118"/>
	<line fill="none" stroke="#6C6C6E" stroke-width="1.5" stroke-miterlimit="10" x1="2.001" y1="32.067" x2="54.898" y2="32.067"/>
	<line fill="none" stroke="#6C6C6E" stroke-width="3" stroke-miterlimit="10" x1="29.139" y1="44.094" x2="29.139" y2="54.097"/>
	
		<line fill="none" stroke="#6C6C6E" stroke-width="3" stroke-linecap="round" stroke-miterlimit="10" x1="15.264" y1="54.722" x2="42.014" y2="54.722"/>
</g>
</svg>
