<?xml version="1.0" encoding="utf-8"?>
<!-- Generator: Adobe Illustrator 15.0.0, SVG Export Plug-In . SVG Version: 6.00 Build 0)  -->
<!DOCTYPE svg PUBLIC "-//W3C//DTD SVG 1.1//EN" "http://www.w3.org/Graphics/SVG/1.1/DTD/svg11.dtd">
<svg version="1.1" id="Layer_1" xmlns="http://www.w3.org/2000/svg" xmlns:xlink="http://www.w3.org/1999/xlink" x="0px" y="0px"
	 width="56.689px" height="56.689px" viewBox="0 0 56.689 56.689" enable-background="new 0 0 56.689 56.689" xml:space="preserve">
<g>
	<circle fill="none" stroke="#6C6C6E" stroke-width="1.5" stroke-miterlimit="10" cx="28.266" cy="31.302" r="5.324"/>
	<g>
		<path fill="none" stroke="#6C6C6E" stroke-width="1.5" stroke-miterlimit="10" d="M34.529,37.42
			c0.574,0.561,1.148,1.121,1.723,1.684"/>
		<path fill="none" stroke="#6C6C6E" stroke-width="1.5" stroke-miterlimit="10" d="M20.281,23.5
			c0.481,0.471,0.964,0.941,1.446,1.412"/>
	</g>
	<g>
		<path fill="none" stroke="#6C6C6E" stroke-width="1.5" stroke-miterlimit="10" d="M34.65,25.31
			c0.586-0.55,1.171-1.099,1.756-1.648"/>
		<path fill="none" stroke="#6C6C6E" stroke-width="1.5" stroke-miterlimit="10" d="M20.126,38.942
			c0.491-0.461,0.983-0.922,1.474-1.383"/>
	</g>
	<g>
		<path fill="none" stroke="#6C6C6E" stroke-width="1.5" stroke-miterlimit="10" d="M37.023,31.307
			c0.802,0.002,1.604,0.002,2.407,0.002"/>
		<path fill="none" stroke="#6C6C6E" stroke-width="1.5" stroke-miterlimit="10" d="M17.103,31.295c0.673-0.001,1.347,0,2.021,0"/>
	</g>
	<g>
		<path fill="none" stroke="#6C6C6E" stroke-width="1.5" stroke-miterlimit="10" d="M28.26,40.058
			c-0.001,0.803-0.001,1.604-0.002,2.407"/>
		<path fill="none" stroke="#6C6C6E" stroke-width="1.5" stroke-miterlimit="10" d="M28.274,20.139c0,0.674,0,1.348-0.001,2.021"/>
	</g>
</g>
</svg>
