<?xml version="1.0" encoding="utf-8"?>
<!-- Generator: Adobe Illustrator 15.0.0, SVG Export Plug-In . SVG Version: 6.00 Build 0)  -->
<!DOCTYPE svg PUBLIC "-//W3C//DTD SVG 1.1//EN" "http://www.w3.org/Graphics/SVG/1.1/DTD/svg11.dtd">
<svg version="1.1" id="Layer_1" xmlns="http://www.w3.org/2000/svg" xmlns:xlink="http://www.w3.org/1999/xlink" x="0px" y="0px"
	 width="178px" height="48px" viewBox="0 0 178 48" enable-background="new 0 0 178 48" xml:space="preserve">
<g>
	<g>
		<g>
			<path fill="#2F50A3" d="M21.646,10.975l-4.422,20.81h12.025l-0.915,4.307H11.14l5.337-25.117H21.646z"/>
			<path fill="#2F50A3" d="M73.375,33.75c-2.562,2.17-5.833,3.135-9.039,3.135c-3.204,0-6.065-0.965-7.706-3.135
				c-1.823-2.447-2.396-6.238-1.59-10.027c0.805-3.79,2.988-7.58,5.85-10.026c2.563-2.17,5.835-3.136,9.039-3.136
				c3.205,0,6.067,0.966,7.707,3.136c1.823,2.446,2.396,6.236,1.591,10.026C78.422,27.512,76.239,31.303,73.375,33.75z
				 M70.272,30.684c1.976-1.518,3.38-4.238,3.994-6.96c0.543-2.723,0.295-5.443-1.037-6.96c-1.053-1.205-2.604-1.688-4.258-1.688
				s-3.41,0.483-4.975,1.688c-1.976,1.517-3.381,4.237-3.994,6.96c-0.543,2.722-0.295,5.443,1.037,6.96
				c1.053,1.205,2.604,1.688,4.258,1.688C66.951,32.371,68.706,31.889,70.272,30.684z"/>
			<path fill="#2F50A3" d="M89.925,10.975l6.496,17.261l3.668-17.261h5.168l-5.338,25.117H94.82l-6.445-17.502l-3.719,17.502h-5.168
				l5.336-25.117H89.925z"/>
			<path fill="#2F50A3" d="M109.027,36.092h-5.168l5.337-25.117h5.167L109.027,36.092z"/>
			<path fill="#2F50A3" d="M136.354,27.512c-0.576,2.551-2.638,5.445-4.848,6.926c-1.73,1.172-4.805,2.344-7.927,2.447
				c-5.619,0.172-8.75-3.412-8.967-8.717c-0.027-1.172,0.104-2.758,0.455-4.411c0.358-1.688,0.896-3.41,1.609-4.823
				c2.408-4.686,6.189-8.373,12.701-8.373c1.792,0,4.263,0.208,6.336,1.964c3.098,2.446,2.582,5.686,2.346,6.96h-4.928
				c0.162-1.413-0.255-4.961-5.365-4.582c-2.38,0.172-4.564,1.86-5.846,3.997c-0.533,0.896-1.23,2.55-1.714,4.34
				c-0.45,1.792-0.688,3.723-0.328,5.272c0.438,1.826,1.342,2.93,2.491,3.514c0.598,0.277,1.223,0.416,1.945,0.416
				c0.683,0.033,1.463-0.07,2.23-0.277c3.795-0.998,4.439-3.549,4.881-4.652H136.354z"/>
			<path fill="#2F50A3" d="M155.22,18.624c0.5-2.033-0.793-3.894-4.327-3.962c-2.507-0.034-4.551,0.826-5.162,2.894
				c-0.504,1.724,0.009,2.068,1.05,2.516c0.454,0.62,5.047,1.379,5.977,1.55c1.326,0.242,4.158,0.861,5.398,2.481
				c2.25,3.033-0.359,8.992-3.927,11.025c-2.43,1.379-5.431,1.723-8.229,1.758c-1.282,0.035-4.219-0.414-5.794-1.758
				c-1.896-1.619-2.471-4.1-2.138-6.477h5.029c-0.139,0.654-0.151,1.688,0.52,2.584c0.889,1.17,2.669,1.549,4.405,1.48
				c1.73-0.033,3.46-0.551,4.246-1.172c1.322-1.033,1.98-2.996,1.004-4.236c-1.288-1.723-6.249-1.723-9.254-2.826
				c-2.524-0.931-4.347-2.894-3.069-6.96c1.263-3.997,4.786-6.96,10.919-6.96c1.345,0,6.008,0.104,7.796,3.205
				c0.949,1.688,0.797,4.031,0.415,4.857H155.22z"/>
			<path fill="#2F50A3" d="M54.992,10.975l-0.915,4.307H41.054l-1.216,6.077h12.024l-0.915,4.305H38.923l-1.377,6.121h13.609
				l-0.915,4.307H31.464l5.336-25.117H54.992z"/>
		</g>
		<path fill="#2F50A3" d="M165.556,32.076c0.557,0.559,0.834,1.234,0.834,2.025c0,0.797-0.277,1.477-0.834,2.037
			c-0.555,0.563-1.23,0.842-2.023,0.842c-0.795,0-1.47-0.279-2.025-0.842c-0.553-0.561-0.828-1.24-0.828-2.037
			c0-0.791,0.277-1.467,0.833-2.025c0.559-0.563,1.232-0.842,2.021-0.842C164.323,31.234,164.998,31.514,165.556,32.076z
			 M165.888,31.756c-0.65-0.646-1.436-0.971-2.355-0.971c-0.916,0-1.695,0.324-2.342,0.971c-0.649,0.648-0.974,1.43-0.974,2.346
			c0,0.924,0.321,1.709,0.964,2.359c0.646,0.652,1.431,0.979,2.352,0.979c0.92,0,1.705-0.326,2.355-0.979
			c0.648-0.652,0.973-1.439,0.973-2.359C166.86,33.184,166.536,32.4,165.888,31.756z M164.025,33.947
			c-0.136,0.055-0.339,0.082-0.612,0.082h-0.579v-1.322h0.548c0.357,0,0.615,0.045,0.777,0.135c0.162,0.092,0.242,0.27,0.242,0.535
			C164.401,33.656,164.276,33.848,164.025,33.947z M162.191,35.916h0.643v-1.439h0.509c0.34,0,0.578,0.039,0.715,0.117
			c0.229,0.137,0.344,0.416,0.344,0.838v0.291l0.014,0.117c0.002,0.016,0.006,0.029,0.01,0.041c0.002,0.012,0.006,0.023,0.009,0.035
			h0.602l-0.022-0.045c-0.015-0.029-0.025-0.092-0.031-0.189c-0.006-0.096-0.01-0.188-0.01-0.271v-0.268
			c0-0.184-0.066-0.373-0.199-0.566s-0.342-0.313-0.629-0.357c0.227-0.035,0.402-0.096,0.529-0.178
			c0.238-0.152,0.357-0.393,0.357-0.719c0-0.459-0.188-0.768-0.565-0.926c-0.212-0.086-0.544-0.129-0.997-0.129h-1.276V35.916z"/>
	</g>
</g>
</svg>
