<?xml version="1.0" encoding="utf-8"?>
<!-- Generator: Adobe Illustrator 15.0.0, SVG Export Plug-In . SVG Version: 6.00 Build 0)  -->
<!DOCTYPE svg PUBLIC "-//W3C//DTD SVG 1.1//EN" "http://www.w3.org/Graphics/SVG/1.1/DTD/svg11.dtd">
<svg version="1.1" id="Layer_1" xmlns="http://www.w3.org/2000/svg" xmlns:xlink="http://www.w3.org/1999/xlink" x="0px" y="0px"
	 width="120px" height="30px" viewBox="0 0 120 30" enable-background="new 0 0 120 30" xml:space="preserve">
<g>
	<g>
		<path fill="none" stroke="#F5909E" stroke-miterlimit="10" d="M24.841,23.348c0,1.105-0.895,2-2,2H7.508c-1.104,0-2-0.895-2-2v-16
			c0-1.104,0.896-2,2-2h15.333c1.105,0,2,0.896,2,2V23.348z"/>
		<line fill="none" stroke="#F5909E" stroke-miterlimit="10" x1="5.508" y1="12.014" x2="24.841" y2="12.014"/>
		<line fill="none" stroke="#F5909E" stroke-miterlimit="10" x1="5.508" y1="15.347" x2="24.841" y2="15.347"/>
		<line fill="none" stroke="#F5909E" stroke-miterlimit="10" x1="18.175" y1="12.014" x2="18.175" y2="15.347"/>
		<line fill="none" stroke="#F5909E" stroke-miterlimit="10" x1="21.841" y1="12.014" x2="21.841" y2="15.347"/>
	</g>
</g>
<g>
	<g>
		<g>
			<path d="M45.585,19.616c-0.151,0.341-0.416,0.644-0.768,0.906s-0.805,0.39-1.346,0.39c-0.566,0-0.98-0.076-1.245-0.227
				c-0.275-0.163-0.54-0.452-0.867-0.855l-4.274-5.153c-0.139-0.176-0.24-0.302-0.315-0.352c-0.088-0.05-0.188-0.076-0.302-0.076
				c-0.076,0-0.163,0.038-0.239,0.089c-0.087,0.062-0.126,0.15-0.126,0.251v6.033h-2.489v-7.001c0-0.126,0.038-0.289,0.113-0.503
				c0.088-0.214,0.214-0.428,0.402-0.654c0.176-0.226,0.428-0.427,0.729-0.578c0.302-0.164,0.679-0.239,1.107-0.239
				c0.541,0,0.967,0.088,1.282,0.276c0.301,0.176,0.553,0.377,0.741,0.591l4.3,5.066c0.151,0.177,0.252,0.302,0.352,0.353
				c0.088,0.051,0.202,0.075,0.328,0.075c0.15,0,0.239-0.05,0.276-0.139c0.025-0.088,0.05-0.2,0.05-0.363v-5.671h2.527v6.877
				C45.824,18.964,45.748,19.266,45.585,19.616z"/>
			<path d="M58.909,19.303c-0.275,0.415-0.603,0.729-1.005,0.968c-0.389,0.239-0.729,0.364-1.03,0.364h-6.764
				c-0.554,0-1.044-0.149-1.483-0.439c-0.428-0.289-0.753-0.654-0.981-1.081c-0.238-0.44-0.352-0.854-0.352-1.245v-3.306
				c0-0.365,0.076-0.704,0.239-1.032c0.151-0.326,0.365-0.627,0.615-0.879c0.264-0.251,0.542-0.452,0.844-0.604
				c0.313-0.137,0.603-0.214,0.879-0.214h6.664c0.302,0,0.666,0.101,1.107,0.29c0.44,0.201,0.816,0.515,1.156,0.956
				c0.34,0.452,0.516,1.018,0.516,1.71v3.168C59.313,18.447,59.174,18.889,58.909,19.303z M56.784,15.318
				c0-0.377-0.125-0.704-0.389-0.968c-0.252-0.265-0.667-0.402-1.22-0.402h-3.897c-0.151,0-0.338,0.063-0.565,0.175
				c-0.227,0.113-0.415,0.264-0.578,0.453c-0.163,0.189-0.252,0.389-0.252,0.603v1.723c0,0.414,0.126,0.767,0.34,1.043
				c0.214,0.29,0.528,0.428,0.956,0.428h4.337c0.352,0,0.653-0.101,0.905-0.289c0.238-0.188,0.363-0.504,0.363-0.956V15.318z"/>
			<path d="M71.38,19.441c-0.29,0.351-0.641,0.642-1.043,0.867c-0.416,0.214-0.754,0.326-1.043,0.326h-8.65v-5.417h2.54v3.255h4.639
				c0.49,0,0.867-0.138,1.106-0.414c0.238-0.277,0.365-0.629,0.365-1.044V15.23c0-0.265-0.063-0.491-0.188-0.692
				c-0.114-0.201-0.29-0.353-0.516-0.466c-0.239-0.125-0.516-0.176-0.856-0.176h-7.14v-2.062h8.548c0.504,0,0.956,0.139,1.371,0.428
				c0.414,0.29,0.729,0.628,0.969,1.031c0.225,0.403,0.339,0.768,0.339,1.082v3.91C71.82,18.7,71.67,19.077,71.38,19.441z"/>
			<path d="M84.53,16.839c-0.216,0.265-0.555,0.402-1.043,0.402l-8.035-0.013v0.428c0,0.226,0.089,0.428,0.252,0.616
				c0.176,0.188,0.352,0.288,0.553,0.288h8.449v2.074h-8.928c-0.59,0-1.104-0.149-1.532-0.464c-0.441-0.314-0.768-0.68-0.994-1.107
				c-0.226-0.414-0.34-0.754-0.34-1.018v-3.821c0-0.291,0.089-0.579,0.24-0.869c0.163-0.289,0.377-0.553,0.642-0.792
				c0.275-0.226,0.552-0.415,0.84-0.54c0.29-0.139,0.567-0.202,0.818-0.202h7.292c0.201,0,0.44,0.063,0.705,0.189
				c0.252,0.126,0.488,0.289,0.691,0.491c0.214,0.188,0.377,0.389,0.502,0.603c0.138,0.227,0.202,0.427,0.202,0.616v2.125
				C84.845,16.236,84.744,16.575,84.53,16.839z M82.14,14.098c-0.161-0.113-0.339-0.163-0.526-0.163l-5.281-0.013
				c-0.226,0-0.427,0.101-0.603,0.29c-0.188,0.2-0.277,0.415-0.277,0.641v0.364h6.903l0.013-0.667
				C82.368,14.363,82.292,14.225,82.14,14.098z"/>
		</g>
	</g>
	<polygon points="88.903,10.656 92.704,10.656 98.813,16.907 92.704,23.145 88.903,23.145 95.013,16.907 	"/>
	<polygon points="108.002,7.55 104.201,7.55 99.687,12.199 95.148,7.55 91.348,7.55 104.255,20.718 108.002,20.718 101.571,14.131 	
		"/>
</g>
</svg>
